<?xml version="1.0" encoding="UTF-8"?>
<svg width="150" height="40" viewBox="0 0 150 40" version="1.1" xmlns="http://www.w3.org/2000/svg">
  <g fill="#E31E24">
    <path d="M30.5,8.2c-0.3-0.7-0.8-1.3-1.4-1.8c-0.6-0.5-1.4-0.8-2.2-1c-0.8-0.2-1.7-0.3-2.6-0.3h-8.7v28.6h8.7 c0.9,0,1.8-0.1,2.6-0.3c0.8-0.2,1.6-0.5,2.2-1c0.6-0.5,1.1-1.1,1.4-1.8c0.3-0.7,0.5-1.6,0.5-2.7V10.9 C31,9.8,30.8,8.9,30.5,8.2z M26.2,27.4c0,0.5-0.1,0.9-0.2,1.2c-0.2,0.3-0.4,0.5-0.7,0.7c-0.3,0.2-0.6,0.3-1,0.3 c-0.4,0-0.8,0.1-1.2,0.1h-3.7V10.3h3.7c0.4,0,0.8,0,1.2,0.1c0.4,0.1,0.7,0.2,1,0.3c0.3,0.2,0.5,0.4,0.7,0.7 c0.2,0.3,0.2,0.7,0.2,1.2V27.4z"/>
    <path d="M47.8,5.1h-4.3l-8.7,28.6h4.8l1.6-5.7h8.9l1.6,5.7h4.8L47.8,5.1z M42.3,24.1l3.3-11.7l3.3,11.7H42.3z"/>
    <path d="M71.7,5.1h-4.3L58.7,33.7h4.8l1.6-5.7h8.9l1.6,5.7H80L71.7,5.1z M66.2,24.1l3.3-11.7l3.3,11.7H66.2z"/>
    <path d="M95.6,5.1h-4.3l-8.7,28.6h4.8l1.6-5.7h8.9l1.6,5.7h4.8L95.6,5.1z M90.1,24.1l3.3-11.7l3.3,11.7H90.1z"/>
    <path d="M119.5,5.1h-4.3l-8.7,28.6h4.8l1.6-5.7h8.9l1.6,5.7h4.8L119.5,5.1z M114,24.1l3.3-11.7l3.3,11.7H114z"/>
  </g>
</svg> 